<svg xmlns="http://www.w3.org/2000/svg" width="115.251" height="115.251" viewBox="0 0 115.251 115.251"><defs><style>.a{fill:#4b95e9;}.b{opacity:0.2;}.c{fill:#d0cde1;}.d{fill:#2f2e41;}</style></defs><g transform="matrix(0.985, 0.174, -0.174, 0.985, 17.276, 0)"><path class="a" d="M361.487,161.742a49.571,49.571,0,0,1-4.006,19.588l-.165.38a49.826,49.826,0,0,1-54.2,29.028q-.448-.079-.895-.165a49.3,49.3,0,0,1-9-2.653q-.709-.285-1.407-.59c-.318-.138-.636-.281-.951-.428a49.747,49.747,0,1,1,70.625-45.159Z" transform="translate(-262 -112)"/><path class="b" d="M419.218,395.931q-.453-.08-.9-.167a206.632,206.632,0,0,0-3.167-29.628,109.921,109.921,0,0,0-5.419-19.709,61.351,61.351,0,0,0-2.835-6.22,32.258,32.258,0,0,0-9-11.135l.529-.723a31.091,31.091,0,0,1,8.061,9.229q1.073,1.78,2.061,3.8,1.059,2.159,2.02,4.583.613,1.543,1.185,3.193a115.914,115.914,0,0,1,4.231,16.35q.386,2.029.734,4.158A210.832,210.832,0,0,1,419.218,395.931Z" transform="translate(-377.946 -297.201)"/><path class="b" d="M410.927,619.24c-.321-.14-.642-.284-.96-.433a73,73,0,0,0-1.925-11.535,37.85,37.85,0,0,0-1.756-5.233,15.7,15.7,0,0,0-4.726-6.619l.529-.721a16.428,16.428,0,0,1,4.942,6.77,46.438,46.438,0,0,1,2.96,10.432C410.453,614.532,410.745,617.073,410.927,619.24Z" transform="translate(-381.042 -523.954)"/><circle class="b" cx="4.473" cy="4.473" r="4.473" transform="translate(10.73 23.654)"/><circle class="b" cx="4.473" cy="4.473" r="4.473" transform="translate(12.17 61.733)"/><path class="b" d="M482.3,300.938a19.869,19.869,0,0,0,1.145,10.2,18.108,18.108,0,0,0,3.435-19.38A19.869,19.869,0,0,0,482.3,300.938Z" transform="translate(-449.692 -265.367)"/><path class="b" d="M336.468,401.927a19.968,19.968,0,0,0,10.234.669,18.219,18.219,0,0,0-18.485-6.759A19.967,19.967,0,0,0,336.468,401.927Z" transform="translate(-318.372 -353.777)"/><path class="b" d="M344.806,642.241a13.926,13.926,0,0,0,7.178.455,12.692,12.692,0,0,0-12.956-4.738A13.927,13.927,0,0,0,344.806,642.241Z" transform="translate(-327.576 -560.366)"/><circle class="c" cx="19.59" cy="19.59" r="19.59" transform="translate(30.052 21.83)"/><path class="d" d="M465.073,527.065l-.167.384a50.333,50.333,0,0,1-54.755,29.324q-.453-.08-.9-.167a49.81,49.81,0,0,1-9.089-2.681q-.716-.288-1.421-.6c-.321-.14-.642-.284-.96-.433a50.183,50.183,0,0,1-8.214-4.8l-2.322-6.736,1.305-1,2.685-2.05,2.865-2.187.745-.569,11.241-8.581.83-.633,5.843-4.46v0s6.318,10.3,15.5,7.234a12.663,12.663,0,0,0,8.982-11.838Z" transform="translate(-369.632 -458.044)"/><path class="d" d="M385.923,691.834q-.716-.288-1.421-.6c-.321-.14-.642-.284-.96-.433a50.373,50.373,0,0,1-13.022-8.727,17.622,17.622,0,0,1,2.486-2.808h9.183l1.377,4.629Z" transform="translate(-354.578 -595.951)"/><path class="d" d="M853.46,576.32l7.878,1.391a50.242,50.242,0,0,1-8.438,13.167Z" transform="translate(-766.064 -508.107)"/></g></svg>